<?xml version="1.0" encoding="UTF-8"?>
<svg width="1200pt" height="1200pt" version="1.1" viewBox="0 0 1200 1200" xmlns="http://www.w3.org/2000/svg">
 <path d="m888 408c12.73 0 24.938-5.0586 33.941-14.059 9-9.0039 14.059-21.211 14.059-33.941v-288c0-17.148-9.1484-32.996-24-41.57-14.852-8.5742-33.148-8.5742-48 0-14.852 8.5742-24 24.422-24 41.57v288c0 12.73 5.0586 24.938 14.059 33.941 9.0039 9 21.211 14.059 33.941 14.059z"/>
 <path d="m168 599.04v432.96c0 51.445 27.445 98.984 72 124.71 44.555 25.723 99.445 25.723 144 0 44.555-25.723 72-73.262 72-124.71v-432.96c29.676-22.258 53.793-51.09 70.449-84.238 16.656-33.148 25.402-69.703 25.551-106.8v-144c0-63.652-25.285-124.7-70.293-169.71-45.012-45.008-106.05-70.293-169.71-70.293s-124.7 25.285-169.71 70.293c-45.008 45.012-70.293 106.05-70.293 169.71v144c0.14844 37.098 8.8945 73.652 25.551 106.8 16.656 33.148 40.773 61.98 70.449 84.238zm0-335.04c0-51.445 27.445-98.984 72-124.71 44.555-25.723 99.445-25.723 144 0 44.555 25.723 72 73.262 72 124.71v144c0.007812 25.16-6.6523 49.875-19.301 71.629-12.645 21.754-30.828 39.77-52.699 52.211-14.836 8.5664-23.984 24.391-24 41.52v458.64c0 17.148-9.1484 32.996-24 41.57-14.852 8.5742-33.148 8.5742-48 0-14.852-8.5742-24-24.422-24-41.57v-458.64c-0.015625-17.129-9.1641-32.953-24-41.52-21.871-12.441-40.055-30.457-52.699-52.211-12.648-21.754-19.309-46.469-19.301-71.629z"/>
 <path d="m744 591.72v440.28c0 51.445 27.445 98.984 72 124.71 44.555 25.723 99.445 25.723 144 0 44.555-25.723 72-73.262 72-124.71v-440.28c28.066-9.9219 52.371-28.301 69.562-52.605 17.191-24.305 26.43-53.344 26.438-83.113v-384c0-17.148-9.1484-32.996-24-41.57-14.852-8.5742-33.148-8.5742-48 0-14.852 8.5742-24 24.422-24 41.57v384c0 12.73-5.0586 24.938-14.059 33.941-9.0039 9-21.211 14.059-33.941 14.059s-24.938 5.0586-33.941 14.059c-9 9.0039-14.059 21.211-14.059 33.941v480c0 17.148-9.1484 32.996-24 41.57-14.852 8.5742-33.148 8.5742-48 0-14.852-8.5742-24-24.422-24-41.57v-480c0-12.73-5.0586-24.938-14.059-33.941-9.0039-9-21.211-14.059-33.941-14.059s-24.938-5.0586-33.941-14.059c-9-9.0039-14.059-21.211-14.059-33.941v-384c0-17.148-9.1484-32.996-24-41.57-14.852-8.5742-33.148-8.5742-48 0-14.852 8.5742-24 24.422-24 41.57v384c0.007812 29.77 9.2461 58.809 26.438 83.113 17.191 24.305 41.496 42.684 69.562 52.605z"/>
</svg>
